<svg xmlns="http://www.w3.org/2000/svg" xmlns:xlink="http://www.w3.org/1999/xlink" width="24" height="24" >
  <symbol id="search" viewBox="0 0 12 13">
		<title>Search</title>
		<g stroke-width="2" stroke="#6c6c6c" fill="none"><path d="M11.29 11.71l-4-4"/><circle cx="5" cy="5" r="4"/></g>
  </symbol>
  <symbol id="user" viewBox="0 0 1024 1024" fill="white">
    <title>User</title>
    <path d="M843.282963 870.115556c-8.438519-140.515556-104.296296-257.422222-233.908148-297.14963C687.881481 536.272593 742.4 456.533333 742.4 364.088889c0-127.241481-103.158519-230.4-230.4-230.4S281.6 236.847407 281.6 364.088889c0 92.444444 54.518519 172.183704 133.12 208.877037-129.611852 39.727407-225.46963 156.634074-233.908148 297.14963-0.663704 10.903704 7.964444 20.195556 18.962963 20.195556l0 0c9.955556 0 18.299259-7.774815 18.962963-17.73037C227.745185 718.506667 355.65037 596.385185 512 596.385185s284.254815 122.121481 293.357037 276.195556c0.568889 9.955556 8.912593 17.73037 18.962963 17.73037C835.318519 890.311111 843.946667 881.019259 843.282963 870.115556zM319.525926 364.088889c0-106.287407 86.186667-192.474074 192.474074-192.474074s192.474074 86.186667 192.474074 192.474074c0 106.287407-86.186667 192.474074-192.474074 192.474074S319.525926 470.376296 319.525926 364.088889z"/>
  </symbol>
   <symbol id="cart" viewBox="0 0 260.293 260.293">
    <title>Cart</title>
    <g>
      <path d="M258.727,57.459c-1.42-1.837-3.612-2.913-5.934-2.913H62.004l-8.333-32.055c-0.859-3.306-3.843-5.613-7.259-5.613H7.5   c-4.142,0-7.5,3.358-7.5,7.5c0,4.142,3.358,7.5,7.5,7.5h33.112l8.333,32.055c0,0.001,0,0.001,0.001,0.002l29.381,112.969   c0.859,3.305,3.843,5.612,7.258,5.612h137.822c3.415,0,6.399-2.307,7.258-5.612l29.385-112.971   C260.636,61.687,260.147,59.295,258.727,57.459z M117.877,167.517H91.385l-5.892-22.652h32.384V167.517z M117.877,129.864H81.592   l-5.895-22.667h42.18V129.864z M117.877,92.197H71.795l-5.891-22.651h51.973V92.197z M176.119,167.517h-43.242v-22.652h43.242   V167.517z M176.119,129.864h-43.242v-22.667h43.242V129.864z M176.119,92.197h-43.242V69.546h43.242V92.197z M217.609,167.517   h-26.49v-22.652h32.382L217.609,167.517z M227.403,129.864h-36.284v-22.667h42.18L227.403,129.864z M237.201,92.197h-46.081V69.546   h51.974L237.201,92.197z"/>
      <path d="M105.482,188.62c-15.106,0-27.396,12.29-27.396,27.395c0,15.108,12.29,27.4,27.396,27.4   c15.105,0,27.395-12.292,27.395-27.4C132.877,200.91,120.588,188.62,105.482,188.62z M105.482,228.415   c-6.835,0-12.396-5.563-12.396-12.4c0-6.835,5.561-12.395,12.396-12.395c6.834,0,12.395,5.561,12.395,12.395   C117.877,222.853,112.317,228.415,105.482,228.415z"/>
      <path d="M203.512,188.62c-15.104,0-27.392,12.29-27.392,27.395c0,15.108,12.288,27.4,27.392,27.4   c15.107,0,27.396-12.292,27.396-27.4C230.908,200.91,218.618,188.62,203.512,188.62z M203.512,228.415   c-6.833,0-12.392-5.563-12.392-12.4c0-6.835,5.559-12.395,12.392-12.395c6.836,0,12.396,5.561,12.396,12.395   C215.908,222.853,210.347,228.415,203.512,228.415z"/>
    </g>
  </symbol>
</svg>